<svg xmlns="http://www.w3.org/2000/svg" xmlns:xlink="http://www.w3.org/1999/xlink" viewBox="0 0 56.38 33.8"><defs><clipPath id="a"><path d="M12.46,4.7a4.06,4.06,0,0,1-8.12,0Z" fill="none"/></clipPath></defs><title>Asset 1</title><path d="M27.33,4.79v.14l.14-.14Zm1.21,0h0V7.06a.45.45,0,0,1-.9,0V5.7l-.3.3V7.06a.76.76,0,0,0,.75.75.74.74,0,0,0,.75-.75V4.79Z" fill="#282827" fill-rule="evenodd"/><path d="M27.17,4.64a.15.15,0,0,0-.15.15.16.16,0,0,0,.16.15h.14l.3-.3h-.45Zm1.52,0-.3.3H29a.15.15,0,0,0,.15-.15A.15.15,0,0,0,29,4.64Z" fill="#282827" fill-rule="evenodd"/><path d="M29.36,2.37a.14.14,0,0,0-.12.07L28.88,3a6.93,6.93,0,0,0-.41.76L29.23,3l.27-.43a.16.16,0,0,0-.05-.21l-.07,0ZM28.38,5,28,5.33a5,5,0,0,0-.06.77v.5a.15.15,0,0,0,.15.15.14.14,0,0,0,.15-.15h0V6.1A5,5,0,0,1,28.38,5Z" fill="#282827" fill-rule="evenodd"/><path d="M30.12,1.47h0L29,1.85a1.23,1.23,0,0,0-.8,1.4l.15.68.25-.25-.1-.49a.92.92,0,0,1,.6-1.06l.89-.3v.46l.3-.3V1.62a.15.15,0,0,0-.14-.15s0,0,0,0Zm.11,1.63L29.3,4A1.31,1.31,0,0,0,30.23,3.1Z" fill="#282827" fill-rule="evenodd"/><path d="M26.64,3.27a.15.15,0,0,0-.05.29l.53.23a2.31,2.31,0,0,1,.78.57l.21-.21a2.62,2.62,0,0,0-.87-.64l-.53-.22,0,0Z" fill="#282827" fill-rule="evenodd"/><path d="M26.55,2.76a1,1,0,0,1,1.13.72l.09.35a.15.15,0,0,1-.06.17l-.33.19A1,1,0,0,1,26.15,4l-.75-.82a.15.15,0,0,1,0-.21l.08,0Zm.05.3-.79.13.56.62a.68.68,0,0,0,.86.12l.22-.13-.06-.24a.7.7,0,0,0-.79-.5Z" fill="#282827" fill-rule="evenodd"/><path d="M28.08,0a4.69,4.69,0,1,0,4.69,4.68A4.69,4.69,0,0,0,28.08,0Zm0,.3A4.39,4.39,0,1,1,23.7,4.71,4.39,4.39,0,0,1,28.08.33Z" fill="#282827"/><path d="M31.18,1.4,24.77,7.81,25,8,31.4,1.61Z" fill="#282827" fill-rule="evenodd"/><path d="M20.19,12.73v-.27h.13c.05,0,.07,0,.07-.07V10.53h.28l1,1.39.18.3h0a1.73,1.73,0,0,1,0-.3V10.73c0-.14.06-.2.2-.2h.31v.27H22.2c-.05,0-.07,0-.07.06v1.87h-.28l-1-1.4L20.69,11h0c0,.11,0,.21,0,.29v1.2c0,.14-.06.2-.2.2Z" fill="#282827"/><path d="M22.88,10.81a1.13,1.13,0,0,1,1.93.8,1.11,1.11,0,0,1-.33.82,1.13,1.13,0,0,1-1.6,0,1.11,1.11,0,0,1-.33-.82A1.09,1.09,0,0,1,22.88,10.81Zm.23,1.41a.77.77,0,0,0,1.14,0,.84.84,0,0,0,.24-.61.81.81,0,0,0-.24-.59.8.8,0,0,0-1.14,0,.8.8,0,0,0-.23.59A.83.83,0,0,0,23.11,12.22Z" fill="#282827"/><path d="M25,12.73v-.27h.13c.05,0,.07,0,.07-.07V10.53h.29l1,1.39.19.3h0c0-.12,0-.22,0-.3V10.73c0-.14.06-.2.2-.2h.32v.27H27s-.07,0-.07.06v1.87h-.28l-1-1.4L25.53,11h0c0,.11,0,.21,0,.29v1.2c0,.14-.05.2-.19.2Z" fill="#282827"/><path d="M27.51,12v-.26h.91V12Z" fill="#282827"/><path d="M29.1,10.82a1.08,1.08,0,0,1,.8-.33,1.16,1.16,0,0,1,.42.07.89.89,0,0,1,.28.14l.08.06L30.5,11a.28.28,0,0,0-.08-.06l-.2-.09a.87.87,0,0,0-.32-.06.74.74,0,0,0-.56.24.91.91,0,0,0,0,1.21.75.75,0,0,0,.57.24.91.91,0,0,0,.6-.24l0,0V12c0-.05,0-.07-.07-.07h-.13v-.27h.29c.14,0,.2.06.2.2v.89h-.27V12.5h0l-.11.09-.14.08a1.06,1.06,0,0,1-.43.09,1,1,0,0,1-.76-.32,1.12,1.12,0,0,1-.31-.82A1.09,1.09,0,0,1,29.1,10.82Z" fill="#282827"/><path d="M31,12.73v-.27h.1a.06.06,0,0,0,.07-.07l.15-1.86h.32l.52,1.16.11.28h0l.11-.28.52-1.16h.32l.15,1.86a.06.06,0,0,0,.07.07h.1v.27h-.28c-.13,0-.19-.06-.2-.2L33,11.37V11h0c0,.14-.08.25-.11.33l-.45,1h-.26l-.45-1c0-.07-.07-.2-.1-.28V11h0a3.22,3.22,0,0,1,0,.33l-.08,1.16c0,.14-.07.2-.21.2Z" fill="#282827"/><path d="M34.06,10.81a1.11,1.11,0,0,1,.8-.32A1.11,1.11,0,0,1,36,11.61a1.11,1.11,0,0,1-.33.82,1.06,1.06,0,0,1-.8.33,1.08,1.08,0,0,1-.8-.33,1.11,1.11,0,0,1-.33-.82A1.09,1.09,0,0,1,34.06,10.81Zm.23,1.41a.75.75,0,0,0,.57.25.72.72,0,0,0,.57-.25.84.84,0,0,0,.24-.61.81.81,0,0,0-.24-.59.75.75,0,0,0-.57-.24.78.78,0,0,0-.57.24.84.84,0,0,0-.23.59A.87.87,0,0,0,34.29,12.22Z" fill="#282827"/><path d="M21,30l.18-.22.1.09a.74.74,0,0,0,.45.17.34.34,0,0,0,.38-.33c0-.23-.26-.32-.53-.45l-.26-.14a.57.57,0,0,1-.27-.48.53.53,0,0,1,.2-.42.76.76,0,0,1,.5-.17.84.84,0,0,1,.27,0,.55.55,0,0,1,.25.13.3.3,0,0,1,.11.24v.18h-.29v-.11c0-.11-.16-.2-.34-.2s-.38.13-.38.3.26.31.53.43.53.28.53.64a.61.61,0,0,1-.19.44.72.72,0,0,1-.51.18,1,1,0,0,1-.46-.11.87.87,0,0,1-.24-.18Z" fill="#282827"/><path d="M22.83,30.27V28.4s0-.07-.07-.07h-.12v-.26h.3c.14,0,.2.06.2.19V29h0a.61.61,0,0,1,.21-.25.65.65,0,0,1,.37-.11c.36,0,.54.21.54.61v.68s0,.07.07.07h.13v.26h-.3c-.14,0-.2-.06-.2-.2v-.74c0-.26-.07-.4-.3-.4a.52.52,0,0,0-.5.39.62.62,0,0,0,0,.21v.74Z" fill="#282827"/><path d="M24.79,29c0-.05,0-.07-.06-.07H24.6v-.26h.29c.14,0,.2.06.2.2v1.05a.06.06,0,0,0,.07.07h.13v.26H25c-.14,0-.2-.06-.2-.2Zm0-.64v-.31h.27v.31Z" fill="#282827"/><path d="M25.63,30.89V29c0-.05,0-.07-.06-.07h-.13v-.26h.28c.13,0,.19,0,.19.16v.08h0a.39.39,0,0,1,.07-.09.56.56,0,0,1,.45-.19.61.61,0,0,1,.5.23.88.88,0,0,1,.19.6.87.87,0,0,1-.2.6.64.64,0,0,1-.51.22.58.58,0,0,1-.47-.22v0h0s0,.09,0,.14v.7Zm.41-1a.38.38,0,0,0,.33.16.42.42,0,0,0,.33-.14.68.68,0,0,0,.13-.42c0-.34-.18-.56-.45-.56s-.45.19-.45.56A.72.72,0,0,0,26,29.88Z" fill="#282827"/><path d="M27.33,30l.16-.21.08.09a.61.61,0,0,0,.39.15c.16,0,.28-.08.28-.2s-.14-.19-.31-.25-.56-.22-.55-.51.24-.45.58-.45a.78.78,0,0,1,.35.08.23.23,0,0,1,.17.23v.15h-.27V29c0-.09-.13-.13-.24-.13s-.29.06-.29.18.14.19.3.25.56.2.56.51a.42.42,0,0,1-.17.34.65.65,0,0,1-.41.12.83.83,0,0,1-.61-.25Z" fill="#282827"/><path d="M29.81,30.27V28.34h-.2v-.27h1.21c.14,0,.2.06.2.2v.27h-.28V28.4s0-.06-.07-.06h-.54v.72h.75v.27h-.75v.94Z" fill="#282827"/><path d="M31.53,29.37a.79.79,0,0,1,.22-.06,2.36,2.36,0,0,1,.36,0h.07v0c0-.27-.1-.38-.35-.38a.57.57,0,0,0-.18,0s-.08,0-.08.09v.1h-.28V29a.27.27,0,0,1,.21-.25,1.47,1.47,0,0,1,.33-.05c.48,0,.65.23.65.62v.67s0,.07.07.07h.12v.26h-.28c-.13,0-.2-.06-.2-.18V30h0s0,0-.06.11a.54.54,0,0,1-.44.2.59.59,0,0,1-.37-.12.44.44,0,0,1-.16-.36A.46.46,0,0,1,31.53,29.37Zm.53.54a.59.59,0,0,0,.12-.35v0H31.9l-.2,0a.38.38,0,0,0-.18.09.26.26,0,0,0,.24.42A.37.37,0,0,0,32.06,29.91Z" fill="#282827"/><path d="M32.82,30l.15-.21s0,0,.09.09a.61.61,0,0,0,.39.15c.16,0,.27-.08.27-.2s-.13-.19-.3-.25-.56-.22-.56-.51.25-.45.59-.45a.85.85,0,0,1,.35.08A.23.23,0,0,1,34,29v.15H33.7V29c0-.09-.13-.13-.24-.13s-.29.06-.29.18.13.19.3.25.56.2.56.51a.42.42,0,0,1-.17.34.69.69,0,0,1-.41.12.81.81,0,0,1-.61-.25Z" fill="#282827"/><path d="M34.42,28.93h-.2v-.24h.21v-.43h.29v.43h.38v.24h-.38v.73a.31.31,0,0,0,.34.35h.07v.27H35a.66.66,0,0,1-.29-.06.52.52,0,0,1-.31-.53Z" fill="#282827"/><path d="M22.48,33.77V32.43h-.2v-.24h.2v0a.57.57,0,0,1,.15-.43.65.65,0,0,1,.44-.16h.12v.26h-.08a.29.29,0,0,0-.33.33v0h.37v.24h-.37v1.34Z" fill="#282827"/><path d="M23.49,33.77V32.52c0-.05,0-.07-.07-.07h-.13v-.26h.29c.13,0,.2.06.2.19v.2h0a.54.54,0,0,1,.5-.41h.08v.3h-.09a.47.47,0,0,0-.44.37.79.79,0,0,0,0,.28v.65Z" fill="#282827"/><path d="M25.93,32.39a.83.83,0,0,1,0,1.18.81.81,0,0,1-.6.23.84.84,0,0,1-.6-.23.81.81,0,0,1-.24-.59.78.78,0,0,1,.24-.59.88.88,0,0,1,1.21,0Zm-.22,1a.55.55,0,0,0,.15-.4.58.58,0,0,0-.15-.41.54.54,0,0,0-.39-.15.54.54,0,0,0-.38.15.58.58,0,0,0-.16.41.58.58,0,0,0,.16.4.51.51,0,0,0,.38.16A.51.51,0,0,0,25.71,33.38Z" fill="#282827"/><path d="M26.55,33.77V32.52a.06.06,0,0,0-.07-.07h-.13v-.26h.29c.13,0,.2.06.2.18v.15h0a.58.58,0,0,1,.21-.26.57.57,0,0,1,.33-.11.43.43,0,0,1,.47.36h0a.65.65,0,0,1,.22-.25.6.6,0,0,1,.34-.11c.35,0,.52.21.52.61v.68c0,.05,0,.07.07.07h.13v.26h-.3c-.14,0-.2-.06-.2-.2v-.75c0-.25-.06-.39-.28-.39a.5.5,0,0,0-.44.4.83.83,0,0,0,0,.22v.72h-.3v-1c0-.25-.05-.39-.27-.39a.5.5,0,0,0-.45.42.59.59,0,0,0,0,.2v.72Z" fill="#282827"/><path d="M30.33,31.91c0-.05,0-.07-.07-.07h-.14v-.27h.32c.14,0,.2.06.2.2V33a.48.48,0,0,0,.52.52.49.49,0,0,0,.53-.53V31.77c0-.14.06-.2.2-.2h.31v.27h-.13s-.07,0-.07.07V33a.78.78,0,0,1-.23.58.81.81,0,0,1-.6.22.82.82,0,0,1-.61-.22.75.75,0,0,1-.23-.58Z" fill="#282827"/><path d="M32.4,33.48l.18-.22.1.09a.74.74,0,0,0,.46.17.34.34,0,0,0,.37-.33c0-.23-.26-.32-.53-.45l-.26-.14a.57.57,0,0,1-.27-.48.56.56,0,0,1,.2-.42.76.76,0,0,1,.5-.17.84.84,0,0,1,.27,0,.55.55,0,0,1,.25.13.32.32,0,0,1,.11.24v.18h-.29V32c0-.11-.16-.19-.34-.19s-.38.12-.38.29.26.31.53.43.53.28.53.64a.61.61,0,0,1-.19.44.68.68,0,0,1-.51.18,1,1,0,0,1-.46-.11.87.87,0,0,1-.24-.18Z" fill="#282827"/><path d="M38.81,30.27V30h.11s.06,0,.07-.07l.15-1.86h.32L40,29.23l.1.28h0a2.74,2.74,0,0,1,.11-.28l.52-1.16H41l.15,1.86c0,.05,0,.07.06.07h.11v.27h-.28c-.14,0-.19-.06-.2-.2l-.09-1.16v-.33h0a2,2,0,0,1-.12.33l-.44,1H40l-.45-1a2.31,2.31,0,0,1-.1-.28l0-.05h0a3.22,3.22,0,0,1,0,.33l-.09,1.16c0,.14-.06.2-.2.2Z" fill="#282827"/><path d="M43,28.89a.78.78,0,0,1,.24.59.81.81,0,0,1-.24.59.91.91,0,0,1-1.21,0,.81.81,0,0,1-.24-.59.78.78,0,0,1,.24-.59.88.88,0,0,1,1.21,0Zm-.22,1a.58.58,0,0,0,.16-.4.58.58,0,0,0-.16-.41.54.54,0,0,0-.39-.15.55.55,0,0,0-.38.15.58.58,0,0,0-.15.41.57.57,0,0,0,.15.4.52.52,0,0,0,.38.16A.51.51,0,0,0,42.76,29.88Z" fill="#282827"/><path d="M43.6,30.27V29c0-.05,0-.07-.07-.07H43.4v-.26h.29c.14,0,.2.06.2.18V29h0a.67.67,0,0,1,.59-.36c.37,0,.54.2.54.61v.68a.06.06,0,0,0,.07.07h.13v.26h-.3c-.14,0-.2-.06-.2-.2v-.74c0-.26-.06-.4-.29-.4a.51.51,0,0,0-.5.39.58.58,0,0,0,0,.21v.74Z" fill="#282827"/><path d="M45.62,28.88a.77.77,0,0,1,.56-.23.61.61,0,0,1,.5.21.79.79,0,0,1,.18.53v.13H45.7a.54.54,0,0,0,.17.38.5.5,0,0,0,.37.14.79.79,0,0,0,.41-.13l.06-.05.13.21-.08.07a1,1,0,0,1-.21.1.87.87,0,0,1-.32.06.78.78,0,0,1-.6-.23.79.79,0,0,1-.24-.59A.81.81,0,0,1,45.62,28.88Zm.93.41a.38.38,0,0,0-.37-.4.45.45,0,0,0-.46.4Z" fill="#282827"/><path d="M47.14,30.55a.32.32,0,0,0,.23.11c.12,0,.21-.08.27-.23l.07-.17L47.18,29a.11.11,0,0,0-.1-.06h0v-.26h.18c.12,0,.17,0,.22.16l.36.89.05.19h0c0-.07,0-.14,0-.19l.33-.89a.21.21,0,0,1,.23-.16h.18V29h0a.1.1,0,0,0-.1.06l-.62,1.54a.54.54,0,0,1-.51.37.53.53,0,0,1-.33-.12l0,0Z" fill="#282827"/><path d="M49.85,28.34h-.21v-.27h.94a.56.56,0,0,1,.64.56.5.5,0,0,1-.27.47h0a.52.52,0,0,1,.36.53.56.56,0,0,1-.2.46.78.78,0,0,1-.51.17h-.55c-.14,0-.2-.06-.2-.2Zm.31.65h.43a.3.3,0,0,0,.31-.33.29.29,0,0,0-.32-.32h-.42Zm0,.94c0,.05,0,.07.07.07h.39a.35.35,0,0,0,.37-.37.35.35,0,0,0-.37-.38h-.46Z" fill="#282827"/><path d="M51.94,29.37a.65.65,0,0,1,.21-.06,2.49,2.49,0,0,1,.36,0h.07v0c0-.27-.1-.38-.35-.38a.51.51,0,0,0-.17,0Q52,29,52,29v.1h-.28V29a.27.27,0,0,1,.22-.25,1.32,1.32,0,0,1,.32-.05c.48,0,.65.23.65.62v.67s0,.07.07.07h.13v.26h-.29c-.13,0-.19-.06-.19-.18V30h0a.32.32,0,0,1-.07.11.53.53,0,0,1-.43.2.62.62,0,0,1-.38-.12.44.44,0,0,1-.16-.36A.46.46,0,0,1,51.94,29.37Zm.52.54a.59.59,0,0,0,.12-.35v0H52.3l-.2,0a.39.39,0,0,0-.17.09.26.26,0,0,0,.23.42A.37.37,0,0,0,52.46,29.91Z" fill="#282827"/><path d="M53.49,28.89a.82.82,0,0,1,.61-.24c.19,0,.56.08.56.35v.16h-.27v-.09c0-.05,0-.09-.1-.11a.41.41,0,0,0-.19-.05.5.5,0,0,0-.39.16.56.56,0,0,0-.15.41.54.54,0,0,0,.16.41.56.56,0,0,0,.39.15.54.54,0,0,0,.25-.06.48.48,0,0,0,.19-.11l.05-.05.13.21s0,0-.1.1a.91.91,0,0,1-.54.17.79.79,0,0,1-.84-.82A.81.81,0,0,1,53.49,28.89Z" fill="#282827"/><path d="M55,30.27V28.4s0-.07-.07-.07h-.13v-.26h.3c.15,0,.2,0,.2.18v1h.14a.21.21,0,0,0,.17-.07l.36-.51h.34l-.42.59a.59.59,0,0,1-.1.11h0a.26.26,0,0,1,.11.12l.23.43s.06.06.13.06h.1v.26h-.22a.24.24,0,0,1-.26-.15l-.29-.53s-.07-.06-.15-.06h-.12v.74Z" fill="#282827"/><path d="M40.42,31.86a1.07,1.07,0,0,1,.79-.33,1.18,1.18,0,0,1,.43.07.89.89,0,0,1,.28.14l.08.06-.18.23L41.74,32l-.2-.09a.91.91,0,0,0-.32-.06.78.78,0,0,0-.57.24.84.84,0,0,0-.22.6.87.87,0,0,0,.22.62.81.81,0,0,0,.57.23.86.86,0,0,0,.6-.24l0,0V33c0-.05,0-.07-.07-.07h-.13v-.27h.29c.14,0,.2.06.2.2v.89h-.28v-.23h0l-.12.09-.14.08a1,1,0,0,1-.43.09,1,1,0,0,1-.76-.32,1.14,1.14,0,0,1-.31-.82A1.09,1.09,0,0,1,40.42,31.86Z" fill="#282827"/><path d="M42.57,32.52c0-.05,0-.07-.07-.07h-.13v-.26h.3c.14,0,.2.06.2.19v.75c0,.25.07.39.29.39a.46.46,0,0,0,.38-.17.68.68,0,0,0,.14-.42v-.74H44v1.25c0,.05,0,.07.07.07h.12v.26h-.28c-.14,0-.2-.06-.2-.18v-.15h0a.61.61,0,0,1-.21.25.58.58,0,0,1-.37.11c-.35,0-.53-.19-.53-.6Z" fill="#282827"/><path d="M44.73,32.87a.73.73,0,0,1,.21-.06,2.56,2.56,0,0,1,.37,0h.06v0c0-.27-.1-.38-.35-.38l-.17,0c-.06,0-.08,0-.08.1v.09h-.29v-.16a.27.27,0,0,1,.22-.25,1.47,1.47,0,0,1,.33-.05c.47,0,.65.23.65.62v.67c0,.05,0,.07.06.07h.13v.26h-.28c-.13,0-.2-.06-.2-.18v-.1h0a.32.32,0,0,1-.07.11.5.5,0,0,1-.43.2.62.62,0,0,1-.38-.12.48.48,0,0,1,.22-.81Zm.53.54a.57.57,0,0,0,.12-.35V33H45.1l-.2,0a.38.38,0,0,0-.18.09.26.26,0,0,0,.24.42A.37.37,0,0,0,45.26,33.41Z" fill="#282827"/><path d="M46.2,33.77V32.52c0-.05,0-.07-.07-.07H46v-.26h.29c.13,0,.2.06.2.19v.2h0a.54.54,0,0,1,.5-.41h.08v.3H47a.47.47,0,0,0-.44.37.79.79,0,0,0,0,.28v.65Z" fill="#282827"/><path d="M47.53,32.87a.65.65,0,0,1,.21-.06,2.49,2.49,0,0,1,.36,0h.07v0c0-.27-.1-.38-.35-.38a.51.51,0,0,0-.17,0c-.06,0-.09,0-.09.1v.09h-.28v-.16a.27.27,0,0,1,.22-.25,1.47,1.47,0,0,1,.33-.05c.47,0,.64.23.64.62v.67a.06.06,0,0,0,.07.07h.13v.26h-.28c-.13,0-.2-.06-.2-.18v-.1h0a.32.32,0,0,1-.07.11.53.53,0,0,1-.43.2.62.62,0,0,1-.38-.12.47.47,0,0,1,.22-.81Zm.52.54a.57.57,0,0,0,.12-.35V33H47.9l-.2,0a.38.38,0,0,0-.18.09.26.26,0,0,0,.23.42A.34.34,0,0,0,48.05,33.41Z" fill="#282827"/><path d="M49,33.77V32.52c0-.05,0-.07-.06-.07H48.8v-.26h.29c.13,0,.2.06.2.18v.15h0a.61.61,0,0,1,.21-.25.6.6,0,0,1,.38-.12c.37,0,.54.2.54.61v.68c0,.05,0,.07.07.07h.13v.26h-.3c-.14,0-.2-.06-.2-.2v-.74c0-.26-.06-.4-.3-.4a.52.52,0,0,0-.5.39,1.06,1.06,0,0,0,0,.21v.74Z" fill="#282827"/><path d="M51,32.43h-.2v-.24H51v-.43h.29v.43h.38v.24h-.38v.73a.31.31,0,0,0,.34.35h.07v.26h-.11a.66.66,0,0,1-.29-.06.51.51,0,0,1-.31-.53Z" fill="#282827"/><path d="M52.08,32.38a.77.77,0,0,1,.56-.23.61.61,0,0,1,.5.21.79.79,0,0,1,.18.53V33H52.16a.54.54,0,0,0,.17.38.53.53,0,0,0,.38.14.7.7,0,0,0,.4-.13l.06,0,.13.21-.08.07-.2.1a1,1,0,0,1-.33.06.78.78,0,0,1-.6-.23.79.79,0,0,1-.24-.59A.81.81,0,0,1,52.08,32.38Zm.93.42a.38.38,0,0,0-.37-.41.45.45,0,0,0-.46.41Z" fill="#282827"/><path d="M53.79,32.38a.78.78,0,0,1,.57-.23.63.63,0,0,1,.5.21.79.79,0,0,1,.18.53V33H53.88a.54.54,0,0,0,.17.38.5.5,0,0,0,.37.14.74.74,0,0,0,.41-.13l.05,0,.13.21-.07.07a1.42,1.42,0,0,1-.21.1.91.91,0,0,1-.32.06.81.81,0,0,1-.61-.23.82.82,0,0,1-.23-.59A.81.81,0,0,1,53.79,32.38Zm.94.42a.38.38,0,0,0-.37-.41.46.46,0,0,0-.47.41Z" fill="#282827"/><path d="M3,10.81a1.17,1.17,0,0,1,1.61,0,1.09,1.09,0,0,1,.33.8,1.11,1.11,0,0,1-.33.82,1.09,1.09,0,0,1-.8.33A1.1,1.1,0,0,1,3,12.43a1.14,1.14,0,0,1-.32-.82A1.13,1.13,0,0,1,3,10.81Zm.24,1.41a.72.72,0,0,0,.57.25.75.75,0,0,0,.57-.25.87.87,0,0,0,.23-.61A.84.84,0,0,0,4.39,11a.78.78,0,0,0-.57-.24.75.75,0,0,0-.57.24.81.81,0,0,0-.24.59A.84.84,0,0,0,3.25,12.22Z" fill="#282827"/><path d="M5.33,12.73V11.48c0-.05,0-.07-.06-.07H5.14v-.26h.28q.21,0,.21.18v.21h0a.53.53,0,0,1,.5-.41h.08v.3H6.12a.49.49,0,0,0-.45.37,1.14,1.14,0,0,0,0,.28v.65Z" fill="#282827"/><path d="M7.51,11.33v0h0v0c0-.11.06-.16.17-.16H8v.26H7.87s-.07,0-.07.06v1.19a.7.7,0,0,1-.79.72,1.13,1.13,0,0,1-.54-.13l.1-.24a.88.88,0,0,0,.43.1c.3,0,.5-.14.5-.44v-.2h0a.52.52,0,0,1-.47.24.62.62,0,0,1-.51-.23.86.86,0,0,1-.19-.58.88.88,0,0,1,.18-.57A.64.64,0,0,1,7,11.11.56.56,0,0,1,7.51,11.33Zm0,.57c0-.35-.15-.52-.45-.52s-.43.19-.43.52.18.55.46.55S7.51,12.29,7.51,11.9Z" fill="#282827"/><path d="M8.55,11.83a.73.73,0,0,1,.21-.06,2.56,2.56,0,0,1,.37,0h.06v0c0-.27-.1-.38-.34-.38a.57.57,0,0,0-.18,0c-.06,0-.08,0-.08.09v.09H8.3v-.15a.27.27,0,0,1,.22-.25,1.47,1.47,0,0,1,.33-.05c.47,0,.65.23.65.62v.67s0,.07.06.07h.13v.26H9.41c-.13,0-.2-.06-.2-.18v-.1h0a.32.32,0,0,1-.07.11.5.5,0,0,1-.43.2.62.62,0,0,1-.38-.12.46.46,0,0,1-.15-.36A.45.45,0,0,1,8.55,11.83Zm.53.54A.59.59,0,0,0,9.2,12v0H8.92l-.2,0a.38.38,0,0,0-.18.09.26.26,0,0,0,.24.42A.37.37,0,0,0,9.08,12.37Z" fill="#282827"/><path d="M10,12.73V11.48a.06.06,0,0,0-.07-.07H9.82v-.26h.29c.13,0,.2.06.2.18v.14h0a.67.67,0,0,1,.59-.36c.37,0,.54.2.54.61v.68s0,.07.07.07h.13v.26h-.3c-.14,0-.2-.06-.2-.2v-.74c0-.26-.06-.4-.3-.4a.5.5,0,0,0-.49.39.58.58,0,0,0,0,.21v.74Z" fill="#282827"/><path d="M12,11.48c0-.05,0-.07-.07-.07h-.13v-.26h.3c.14,0,.2.06.2.2V12.4s0,.07.07.07h.12v.26h-.29c-.14,0-.2-.06-.2-.2Zm0-.64v-.31h.28v.31Z" fill="#282827"/><path d="M12.9,11.35a.82.82,0,0,1,.61-.24c.19,0,.57.08.57.35v.16H13.8v-.09a.11.11,0,0,0-.09-.11.46.46,0,0,0-.2-.05.48.48,0,0,0-.38.16.53.53,0,0,0-.16.41.58.58,0,0,0,.16.41.59.59,0,0,0,.65.09.5.5,0,0,0,.18-.11l.06-.05.13.21-.11.1a.88.88,0,0,1-.54.17.81.81,0,0,1-.6-.23.79.79,0,0,1-.24-.59A.81.81,0,0,1,12.9,11.35Z" fill="#282827"/><path d="M39.37,10.82a1,1,0,0,1,.79-.33,1.21,1.21,0,0,1,.43.07.82.82,0,0,1,.27.14l.08.06-.17.23-.08-.06-.21-.09a.87.87,0,0,0-.32-.06.74.74,0,0,0-.56.24.85.85,0,0,0-.23.6.84.84,0,0,0,.23.61.75.75,0,0,0,.57.24.89.89,0,0,0,.6-.24l0,0V12a.06.06,0,0,0-.07-.07h-.14v-.27h.29c.14,0,.2.06.2.2v.89h-.27V12.5h0l-.12.09-.14.08a1.06,1.06,0,0,1-.43.09,1,1,0,0,1-.76-.32,1.12,1.12,0,0,1-.31-.82A1.09,1.09,0,0,1,39.37,10.82Z" fill="#282827"/><path d="M41.49,10.86s0-.07-.07-.07h-.13v-.26h.3c.14,0,.2.06.2.2V12.4s0,.07.07.07H42v.26h-.3c-.14,0-.2-.06-.2-.2Z" fill="#282827"/><path d="M42.32,11.48c0-.05,0-.07-.07-.07h-.13v-.26h.3c.14,0,.2.06.2.19v.75c0,.25.07.39.29.39a.49.49,0,0,0,.38-.17.68.68,0,0,0,.14-.42v-.74h.3V12.4s0,.07.07.07h.13v.26h-.29c-.14,0-.2-.06-.2-.18V12.4h0a.74.74,0,0,1-.22.25.55.55,0,0,1-.36.11c-.36,0-.54-.19-.54-.6Z" fill="#282827"/><path d="M44.27,11.39h-.21v-.24h.22v-.43h.29v.43H45v.24h-.38v.73a.31.31,0,0,0,.33.35H45v.27h-.11a.7.7,0,0,1-.3-.06.53.53,0,0,1-.3-.53Z" fill="#282827"/><path d="M45.4,11.34a.74.74,0,0,1,.56-.23.61.61,0,0,1,.5.21.79.79,0,0,1,.18.53V12H45.48a.54.54,0,0,0,.17.38.5.5,0,0,0,.37.14.79.79,0,0,0,.41-.13l0,0,.14.21-.08.07a1,1,0,0,1-.21.1.87.87,0,0,1-.32.06.81.81,0,0,1-.61-.23.82.82,0,0,1-.23-.59A.81.81,0,0,1,45.4,11.34Zm.93.41a.38.38,0,0,0-.37-.4.46.46,0,0,0-.47.4Z" fill="#282827"/><path d="M47,12.73V11.48c0-.05,0-.07-.07-.07h-.13v-.26h.29c.14,0,.2.06.2.18v.14h0a.67.67,0,0,1,.59-.36c.37,0,.55.2.55.61v.68s0,.07.06.07h.13v.26h-.3c-.14,0-.2-.06-.2-.2v-.74c0-.26-.06-.4-.29-.4a.51.51,0,0,0-.5.39.58.58,0,0,0,0,.21v.74Z" fill="#282827"/><path d="M48.94,12v-.26h.91V12Z" fill="#282827"/><path d="M50.38,12.73V10.8h-.2v-.27h1.21c.14,0,.2.06.2.2V11h-.28v-.14s0-.06-.07-.06h-.55v.72h.75v.27h-.75v.94Z" fill="#282827"/><path d="M51.92,12.73V11.48c0-.05,0-.07-.07-.07h-.13v-.26H52c.13,0,.2.06.2.18v.21h0a.55.55,0,0,1,.5-.41h.08v.3H52.7a.47.47,0,0,0-.44.37.79.79,0,0,0,0,.28v.65Z" fill="#282827"/><path d="M53.13,11.34a.78.78,0,0,1,.57-.23.63.63,0,0,1,.5.21.79.79,0,0,1,.18.53V12H53.22a.5.5,0,0,0,.17.38.49.49,0,0,0,.37.14.86.86,0,0,0,.41-.13l0,0,.13.21-.07.07a1.42,1.42,0,0,1-.21.1,1,1,0,0,1-.32.06.81.81,0,0,1-.61-.23.82.82,0,0,1-.23-.59A.81.81,0,0,1,53.13,11.34Zm.94.41a.38.38,0,0,0-.37-.4.46.46,0,0,0-.47.4Z" fill="#282827"/><path d="M54.85,11.34a.77.77,0,0,1,.56-.23.61.61,0,0,1,.5.21.79.79,0,0,1,.18.53V12H54.94a.5.5,0,0,0,.16.38.53.53,0,0,0,.38.14.78.78,0,0,0,.4-.13l.06,0,.13.21L56,12.6a1.17,1.17,0,0,1-.2.1,1,1,0,0,1-.33.06.8.8,0,0,1-.84-.82A.81.81,0,0,1,54.85,11.34Zm.93.41a.38.38,0,0,0-.37-.4.45.45,0,0,0-.46.4Z" fill="#282827"/><path d="M0,30.27V30H.11s.06,0,.06-.07l.15-1.86H.64l.52,1.16.11.28h0a2.91,2.91,0,0,1,.1-.28l.52-1.16h.32l.15,1.86c0,.05,0,.07.07.07h.1v.27H2.27c-.14,0-.19-.06-.2-.2L2,28.91v-.33H2c0,.14-.08.25-.11.33l-.45,1H1.14l-.44-1a1.33,1.33,0,0,1-.1-.28l0-.05h0c0,.13,0,.24,0,.33L.48,30.07c0,.14-.06.2-.2.2Z" fill="#282827"/><path d="M2.94,28.88a.77.77,0,0,1,.56-.23.61.61,0,0,1,.5.21.79.79,0,0,1,.18.53v.13H3a.54.54,0,0,0,.17.38.53.53,0,0,0,.38.14.78.78,0,0,0,.4-.13L4,29.86l.13.21-.08.07a1,1,0,0,1-.21.1.87.87,0,0,1-.32.06.8.8,0,0,1-.84-.82A.81.81,0,0,1,2.94,28.88Zm.93.41a.38.38,0,0,0-.37-.4.45.45,0,0,0-.46.4Z" fill="#282827"/><path d="M4.59,28.93h-.2v-.24H4.6v-.43h.3v.43h.37v.24H4.9v.73a.31.31,0,0,0,.33.35H5.3v.27H5.2a.67.67,0,0,1-.3-.06.52.52,0,0,1-.31-.53Z" fill="#282827"/><path d="M5.88,29.37a.79.79,0,0,1,.22-.06,2.49,2.49,0,0,1,.36,0h.07v0c0-.27-.1-.38-.35-.38a.51.51,0,0,0-.17,0q-.09,0-.09.09v.1H5.64V29a.27.27,0,0,1,.22-.25,1.32,1.32,0,0,1,.32-.05c.48,0,.65.23.65.62v.67s0,.07.07.07H7v.26H6.74c-.13,0-.19-.06-.19-.18V30h0a.32.32,0,0,1-.07.11.53.53,0,0,1-.43.2.62.62,0,0,1-.38-.12.44.44,0,0,1-.16-.36A.46.46,0,0,1,5.88,29.37Zm.53.54a.59.59,0,0,0,.12-.35v0H6.25l-.2,0a.39.39,0,0,0-.17.09.25.25,0,0,0,.23.42A.37.37,0,0,0,6.41,29.91Z" fill="#282827"/><path d="M7.34,30.27V28.4s0-.07-.07-.07H7.14v-.26h.3c.14,0,.2.06.2.2v.64h0a.39.39,0,0,1,.07-.09.65.65,0,0,1,.44-.17.61.61,0,0,1,.5.23.88.88,0,0,1,.19.6.92.92,0,0,1-.2.6.67.67,0,0,1-.52.22.56.56,0,0,1-.47-.23l0,0h0a.41.41,0,0,1,0,.12v.11Zm.41-.39a.43.43,0,0,0,.65,0,.62.62,0,0,0,.13-.42c0-.34-.18-.56-.44-.56s-.45.19-.45.56A.65.65,0,0,0,7.75,29.88Z" fill="#282827"/><path d="M10.52,28.89a.83.83,0,0,1,0,1.18.81.81,0,0,1-.6.23.82.82,0,0,1-.85-.82.78.78,0,0,1,.25-.59.83.83,0,0,1,.6-.24A.85.85,0,0,1,10.52,28.89Zm-.23,1a.54.54,0,0,0,.16-.4.54.54,0,0,0-.16-.41.56.56,0,0,0-.76,0,.58.58,0,0,0-.16.41.58.58,0,0,0,.16.4.53.53,0,0,0,.76,0Z" fill="#282827"/><path d="M11.1,28.4s0-.07-.07-.07H10.9v-.26h.3c.14,0,.2.06.2.2v1.67s0,.07.07.07h.13v.26h-.3c-.14,0-.2-.06-.2-.2Z" fill="#282827"/><path d="M12,29a.06.06,0,0,0-.07-.07h-.13v-.26h.3c.14,0,.19.06.19.2v1.05a.06.06,0,0,0,.07.07h.13v.26h-.29c-.14,0-.2-.06-.2-.2Zm0-.64v-.31h.27v.31Z" fill="#282827"/><path d="M12.61,30l.16-.21.08.09a.64.64,0,0,0,.4.15c.15,0,.27-.08.27-.2s-.13-.19-.31-.25-.55-.22-.55-.51.25-.45.59-.45a.85.85,0,0,1,.35.08.23.23,0,0,1,.16.23v.15h-.27V29c0-.09-.12-.13-.23-.13s-.3.06-.3.18.14.19.3.25.56.2.56.51a.41.41,0,0,1-.16.34.7.7,0,0,1-.42.12.78.78,0,0,1-.6-.25Z" fill="#282827"/><path d="M14.21,30.27V29a.06.06,0,0,0-.07-.07H14v-.26h.29c.13,0,.2.06.2.18V29h0a.61.61,0,0,1,.21-.25.57.57,0,0,1,.33-.11.43.43,0,0,1,.47.36h0a.65.65,0,0,1,.22-.25.6.6,0,0,1,.34-.11c.35,0,.52.21.52.61v.68s0,.07.07.07h.13v.26h-.3c-.14,0-.2-.06-.2-.2v-.75c0-.25-.06-.39-.28-.39a.5.5,0,0,0-.44.4.83.83,0,0,0,0,.22v.72h-.3v-.95c0-.25-.05-.39-.27-.39a.5.5,0,0,0-.45.41.68.68,0,0,0,0,.21v.72Z" fill="#282827"/><path d="M3.14,31.84h-.2v-.27h.94a.56.56,0,0,1,.63.56.5.5,0,0,1-.27.47h0a.52.52,0,0,1,.36.53.59.59,0,0,1-.2.47.82.82,0,0,1-.51.16H3.34c-.14,0-.2-.06-.2-.2Zm.31.65h.43a.31.31,0,0,0,.32-.33.3.3,0,0,0-.33-.32H3.45Zm0,.94s0,.07.07.07h.39a.35.35,0,0,0,.37-.37.35.35,0,0,0-.37-.38H3.45Z" fill="#282827"/><path d="M6.3,32.39a.75.75,0,0,1,.25.59.82.82,0,0,1-.25.59.84.84,0,0,1-.6.23.81.81,0,0,1-.6-.23A.78.78,0,0,1,4.85,33a.75.75,0,0,1,.25-.59.87.87,0,0,1,1.2,0Zm-.22,1a.52.52,0,0,0,.16-.4.54.54,0,0,0-.16-.41.52.52,0,0,0-.38-.15.56.56,0,0,0-.39.15.58.58,0,0,0-.15.41.57.57,0,0,0,.15.4.53.53,0,0,0,.39.16A.49.49,0,0,0,6.08,33.38Z" fill="#282827"/><path d="M8.22,32.39a.78.78,0,0,1,.25.59.82.82,0,0,1-.25.59.91.91,0,0,1-1.21,0A.81.81,0,0,1,6.77,33,.78.78,0,0,1,7,32.39a.88.88,0,0,1,1.21,0Zm-.22,1a.56.56,0,0,0,.16-.4A.58.58,0,0,0,8,32.57a.52.52,0,0,0-.38-.15.56.56,0,0,0-.39.15.58.58,0,0,0-.15.41.57.57,0,0,0,.15.4.53.53,0,0,0,.39.16A.49.49,0,0,0,8,33.38Z" fill="#282827"/><path d="M8.66,33.53l.15-.2.09.08a.61.61,0,0,0,.39.15c.16,0,.27-.08.27-.2s-.13-.18-.3-.25-.56-.22-.55-.51.24-.45.58-.45a.82.82,0,0,1,.35.08.24.24,0,0,1,.17.23v.15H9.54v-.08c0-.09-.13-.13-.24-.13s-.29.06-.29.18.13.19.3.25.56.21.56.51a.41.41,0,0,1-.17.34.66.66,0,0,1-.41.12.85.85,0,0,1-.61-.24Z" fill="#282827"/><path d="M10.26,32.43h-.2v-.24h.21v-.43h.29v.43h.38v.24h-.38v.73a.31.31,0,0,0,.34.35H11v.26h-.11a.66.66,0,0,1-.29-.06.51.51,0,0,1-.31-.53Z" fill="#282827"/><path d="M11.39,32.38a.78.78,0,0,1,.57-.23.61.61,0,0,1,.49.21.79.79,0,0,1,.18.53V33H11.48a.5.5,0,0,0,.16.38.53.53,0,0,0,.38.14.7.7,0,0,0,.4-.13l.06,0,.13.21-.08.07a1.17,1.17,0,0,1-.2.1,1,1,0,0,1-.33.06.8.8,0,0,1-.84-.82A.81.81,0,0,1,11.39,32.38Zm.93.42a.38.38,0,0,0-.37-.41.45.45,0,0,0-.46.41Z" fill="#282827"/><path d="M13,33.77V32.52c0-.05,0-.07-.07-.07h-.12v-.26h.28c.14,0,.21.06.21.19v.2h0a.53.53,0,0,1,.49-.41h.08v.3h-.09a.48.48,0,0,0-.44.37,1.11,1.11,0,0,0,0,.28v.65Z" fill="#282827"/><path d="M5.86,22.1a3.32,3.32,0,0,0-.3,1.14,1.9,1.9,0,0,0,.29,1.13,2.17,2.17,0,0,0,1.36.87,3.46,3.46,0,0,0,1.69-.09,2.08,2.08,0,0,0,1.1-.7,2,2,0,0,0,.08-1.69,3.36,3.36,0,0,1-.24-1.7.56.56,0,0,0,0-.22.17.17,0,0,0-.17-.14.22.22,0,0,0-.13.06,3.16,3.16,0,0,0-.74.81s-.31-.45-.34-.51a1.55,1.55,0,0,1-.1-.6,1.39,1.39,0,0,1,.15-.59c.06-.12.37-.42.3-.55-.14-.28-1,.36-1.08.46a6.2,6.2,0,0,0-1.06,1A5.38,5.38,0,0,0,5.86,22.1Z" fill="none" stroke="#282827" stroke-linecap="round" stroke-linejoin="round" stroke-width="0.3"/><path d="M7.7,25.35a1.22,1.22,0,0,1-.84-.47,1.36,1.36,0,0,1-.29-1A1.77,1.77,0,0,1,7,23a5.74,5.74,0,0,1,.75-.73c.2.47.64.79.83,1.26a1.38,1.38,0,0,1-.09,1.22,1.21,1.21,0,0,1-1,.6" fill="none" stroke="#282827" stroke-linecap="round" stroke-linejoin="round" stroke-width="0.3"/><path d="M9.39,22.3a4.14,4.14,0,0,1,.3,1" fill="none" stroke="#282827" stroke-linecap="round" stroke-linejoin="round" stroke-width="0.3"/><path d="M12.83,20.74a4.62,4.62,0,0,0-5.75-3.11,4.5,4.5,0,0,0-2,1.24.24.24,0,0,0,0,.35.25.25,0,0,0,.35,0,4.13,4.13,0,0,1,6.85,4.3l-.2-.51a.25.25,0,1,0-.46.19l.41,1h0v0l0,0v0h0l0,0h0l0,0h.18L13.39,24a.26.26,0,0,0,.14-.32.25.25,0,0,0-.33-.14l-.47.18A4.62,4.62,0,0,0,12.83,20.74Z" fill="none" stroke="#282827" stroke-linecap="round" stroke-linejoin="round" stroke-width="0.3"/><path d="M11.73,24.9a.25.25,0,0,0-.35,0,4.12,4.12,0,0,1-6.85-4.29l.2.5a.25.25,0,0,0,.29.15h0a.26.26,0,0,0,.14-.32l-.42-1.06h0v0l0,0v0H4.45l-1,.42a.25.25,0,0,0-.15.32.26.26,0,0,0,.33.15l.47-.19a4.63,4.63,0,0,0,5.42,6.12l.24-.06a4.61,4.61,0,0,0,2-1.24A.25.25,0,0,0,11.73,24.9Z" fill="none" stroke="#282827" stroke-linecap="round" stroke-linejoin="round" stroke-width="0.3"/><line x1="10.8" y1="20.77" x2="11.62" y2="20.77" fill="none" stroke="#282827" stroke-linecap="round" stroke-linejoin="round" stroke-width="0.3"/><line x1="11.21" y1="20.36" x2="11.21" y2="21.18" fill="none" stroke="#282827" stroke-linecap="round" stroke-linejoin="round" stroke-width="0.3"/><line x1="10.22" y1="21.46" x2="10.81" y2="21.46" fill="none" stroke="#282827" stroke-linecap="round" stroke-linejoin="round" stroke-width="0.3"/><line x1="10.51" y1="21.17" x2="10.51" y2="21.76" fill="none" stroke="#282827" stroke-linecap="round" stroke-linejoin="round" stroke-width="0.3"/><path d="M45.75,2.05c.3.3.36.75.22.88s-.56.06-.86-.24-.4-.72-.25-.87S45.44,1.74,45.75,2.05Z" fill="#282827"/><path d="M47.15,2.53c0,.46-.21.88-.39.92s-.43-.29-.46-.75.16-.87.35-.91S47.12,2.07,47.15,2.53Z" fill="#282827"/><path d="M48.06,3.44c0,.46-.2.88-.39.92s-.43-.29-.46-.75.16-.87.35-.91S48,3,48.06,3.44Z" fill="#282827"/><path d="M49,4.36c0,.46-.21.88-.39.92s-.43-.29-.46-.75.16-.87.35-.91S49,3.9,49,4.36Z" fill="#282827"/><path d="M50,5.34c0,.46-.21.88-.39.92s-.43-.29-.46-.75.16-.87.35-.91S49.93,4.88,50,5.34Z" fill="#282827"/><path d="M45.58,4.1c.46,0,.88-.21.92-.39s-.29-.43-.75-.46-.87.15-.91.35S45.12,4.07,45.58,4.1Z" fill="#282827"/><path d="M46.49,5c.46,0,.88-.21.92-.39s-.29-.43-.75-.46-.87.16-.91.35S46,5,46.49,5Z" fill="#282827"/><path d="M47.41,5.93c.46,0,.88-.21.92-.39s-.29-.43-.75-.46-.87.16-.91.35S47,5.9,47.41,5.93Z" fill="#282827"/><path d="M48.39,6.91c.46,0,.88-.21.92-.39s-.29-.43-.75-.46-.87.16-.91.35S47.94,6.88,48.39,6.91Z" fill="#282827"/><rect x="49.86" y="6.36" width="0.5" height="1.3" rx="0.22" transform="translate(9.72 37.49) rotate(-45)" fill="#282827"/><line x1="46.15" y1="5.76" x2="49.03" y2="2.87" fill="none" stroke="#fff" stroke-miterlimit="10" stroke-width="0.3"/><line x1="46.52" y1="6.16" x2="49.41" y2="3.28" fill="none" stroke="#fff" stroke-miterlimit="10" stroke-width="0.3"/><path d="M47.58,0a4.69,4.69,0,1,0,4.69,4.68A4.69,4.69,0,0,0,47.58,0Zm0,.3A4.39,4.39,0,1,1,43.2,4.71,4.38,4.38,0,0,1,47.58.33Z" fill="#282827"/><path d="M50.68,1.4,44.27,7.81l.22.22L50.9,1.61Z" fill="#282827" fill-rule="evenodd"/><path d="M26.4,20.12a.18.18,0,0,0,.18-.18.18.18,0,0,0-.18-.17H23.15a.17.17,0,0,0-.17.17.17.17,0,0,0,.17.18Z" fill="#282827"/><path d="M25.77,20.82a.18.18,0,0,0-.18-.18H22.34a.18.18,0,0,0,0,.36h3.25A.18.18,0,0,0,25.77,20.82Z" fill="#282827"/><path d="M26,21.7a.18.18,0,0,0-.18-.18H22.52a.17.17,0,0,0-.17.18.16.16,0,0,0,.17.17h3.25A.17.17,0,0,0,26,21.7Z" fill="#282827"/><path d="M26.13,23.25a.69.69,0,1,0,.69.69A.69.69,0,0,0,26.13,23.25Zm0,1a.34.34,0,1,1,0-.67.34.34,0,1,1,0,.67Z" fill="#282827"/><path d="M31.15,23.25a.69.69,0,1,0,.69.69A.69.69,0,0,0,31.15,23.25Zm0,1a.34.34,0,1,1,0-.67.34.34,0,0,1,.34.34A.34.34,0,0,1,31.15,24.27Z" fill="#282827"/><path d="M31.62,20.55h-1a.18.18,0,0,0-.18.18V22a.18.18,0,0,0,.18.18h1.85a.21.21,0,0,0,.15-.07.18.18,0,0,0,0-.16C32.52,21.58,32.13,20.55,31.62,20.55Zm-.83,1.23V20.9h.83c.14,0,.39.4.59.88Z" fill="#282827"/><path d="M33.63,23v-.66a.31.31,0,0,0,0-.13L33,20.72v0c-.3-.49-.61-.94-1.11-.94H30.55a1.13,1.13,0,0,0-.36.06v-.25a.67.67,0,0,0-.67-.67H22.61a.18.18,0,0,0-.18.18.17.17,0,0,0,.18.17h6.91a.32.32,0,0,1,.32.32V23.8H27.41a1.29,1.29,0,0,0-2.57,0h-.6a.31.31,0,0,1-.32-.31V22.23h-.35v1.26a.67.67,0,0,0,.67.67h.61a1.31,1.31,0,0,0,1.28,1.07,1.29,1.29,0,0,0,1.27-1.07h2.48a1.29,1.29,0,0,0,2.54,0h1.07a.51.51,0,0,0,.51-.51v-.16A.52.52,0,0,0,33.63,23Zm-7.5,1.88a.94.94,0,1,1,.94-.94A.95.95,0,0,1,26.13,24.88Zm5,0a.94.94,0,1,1,.94-.94A.95.95,0,0,1,31.15,24.88Zm2.49-1.23a.15.15,0,0,1-.15.15H32.43a1.28,1.28,0,0,0-1.28-1.16,1.31,1.31,0,0,0-1,.43V20.19a.8.8,0,0,1,.36-.09h1.31c.31,0,.55.36.8.76l.61,1.48v.82a.18.18,0,0,0,.18.18h0a.14.14,0,0,1,.15.15v.16Z" fill="#282827"/><path d="M44.23,22l-.76.75a.19.19,0,0,1-.15.07.18.18,0,0,1-.15-.07L42.42,22a.22.22,0,0,1,0-.32.23.23,0,0,1,.31,0l.37.37a4.5,4.5,0,0,1,4.5-4.5.23.23,0,0,1,.23.23.07.07,0,0,1,0,.05.23.23,0,0,1-.22.17h0a4.07,4.07,0,0,0-4.06,4.06h0l.38-.38a.24.24,0,0,1,.32,0A.23.23,0,0,1,44.23,22Zm4.21-3.91h.05a.21.21,0,0,0,.21-.17.22.22,0,1,0-.26.17Zm1.53.67a.19.19,0,0,0,.13.05.19.19,0,0,0,.17-.09.22.22,0,0,0,0-.31h0a.22.22,0,0,0-.31.05A.2.2,0,0,0,50,18.75Zm.79.64a.22.22,0,0,0,.15-.06.23.23,0,1,0-.15.06Zm.69,1.36h0a.23.23,0,0,0,.21.16h.07a.23.23,0,0,0-.14-.43A.22.22,0,0,0,51.45,20.75Zm-7.67,2.71a.21.21,0,0,0-.28-.13.21.21,0,0,0-.13.28.2.2,0,0,0,.21.14h.08A.21.21,0,0,0,43.78,23.46Zm7.51-3.35a.17.17,0,0,0,.11,0,.22.22,0,0,0,.09-.3.23.23,0,0,0-.31-.09.23.23,0,0,0,.11.43Zm-2-1.77a.24.24,0,0,0,.09,0,.21.21,0,0,0,.2-.13.23.23,0,0,0-.11-.3.23.23,0,0,0-.3.12A.21.21,0,0,0,49.24,18.34Zm-3.18,7.47a.24.24,0,0,0-.29.12.23.23,0,0,0,.12.3H46a.21.21,0,0,0,.2-.14A.2.2,0,0,0,46.06,25.81Zm.81.24a.22.22,0,0,0-.25.18.21.21,0,0,0,.17.25h0a.22.22,0,0,0,.22-.18A.22.22,0,0,0,46.87,26.05Zm-2.51-1.18a.22.22,0,0,0,0,.32.23.23,0,0,0,.17.07.2.2,0,0,0,.15-.06.21.21,0,0,0,0-.32A.2.2,0,0,0,44.36,24.87Zm-.51-.73a.22.22,0,0,0-.07.31.23.23,0,0,0,.19.1l.12,0a.24.24,0,0,0,.07-.31A.23.23,0,0,0,43.85,24.14Zm1.47,1.27a.22.22,0,0,0-.25.37.31.31,0,0,0,.13,0,.25.25,0,0,0,.19-.09A.24.24,0,0,0,45.32,25.41Zm7.44-3.28L52,21.38a.23.23,0,0,0-.31,0l-.76.75a.24.24,0,0,0,0,.32.23.23,0,0,0,.16.07.21.21,0,0,0,.15-.07l.38-.38h0a4.07,4.07,0,0,1-4.06,4.06.23.23,0,0,0-.23.22.23.23,0,0,0,.23.23,4.5,4.5,0,0,0,4.5-4.5l.37.37a.19.19,0,0,0,.15.07.18.18,0,0,0,.15-.07A.22.22,0,0,0,52.76,22.13Zm-5.4,2.44a.22.22,0,0,0,.22.22.22.22,0,0,0,.22-.22V24H48a1.08,1.08,0,0,0,0-2.15H47.8V20.57h.76a.23.23,0,0,0,.22-.23.22.22,0,0,0-.22-.22H47.8v-.59a.22.22,0,1,0-.44,0v.59h-.17a1.07,1.07,0,0,0,0,2.14h.17v1.25h-.78a.22.22,0,0,0,0,.44h.78v.62Zm.44-1.18V22.28H48a.63.63,0,0,1,.62.63.62.62,0,0,1-.62.62H47.8v-.14Zm-.61-1.55a.63.63,0,0,1-.62-.63.62.62,0,0,1,.62-.62h.17v1.26h-.17Z" fill="#282827"/><path d="M12.46,4.7a4.06,4.06,0,0,1-8.12,0Z" fill="#808184"/><g clip-path="url(#a)"><polygon points="12.46 4.7 4.15 4.7 4.49 6.04 12.46 4.7" fill="#231f20"/><polygon points="12.46 4.7 4.56 6.23 5.24 7.44 12.46 4.7" fill="#231f20"/><polygon points="12.46 4.7 5.44 7.58 6.68 8.51 12.46 4.7" fill="#231f20"/><polygon points="12.46 4.7 6.94 8.6 8.67 9.01 12.46 4.7" fill="#231f20"/><polygon points="12.46 4.7 9.11 8.84 12.31 8.82 12.46 4.7" fill="#231f20"/></g><path d="M8.4,9.4A4.7,4.7,0,0,1,8.4,0a4.69,4.69,0,0,1,4.69,4.7A4.69,4.69,0,0,1,8.4,9.4Zm0-9A4.32,4.32,0,1,0,12.72,4.7,4.33,4.33,0,0,0,8.4.38Z" fill="#231f20"/><path d="M6,2.45h.42V3.77c0,.09,0,.16.14.16s.14-.09.14-.17V2.45h.41V3.72c0,.3-.13.53-.55.53A.49.49,0,0,1,6,3.72Z" fill="#231f20"/><path d="M7.6,3.62v.12c0,.1,0,.19.16.19s.14-.09.14-.18-.12-.2-.23-.26a1.14,1.14,0,0,1-.31-.23.5.5,0,0,1-.12-.35.46.46,0,0,1,.51-.5A.5.5,0,0,1,8.28,3H7.9c0-.11,0-.25-.14-.26a.13.13,0,0,0-.14.12.22.22,0,0,0,.12.22,2.21,2.21,0,0,1,.39.24.54.54,0,0,1,.15.42.48.48,0,0,1-.53.53c-.38,0-.54-.21-.54-.45V3.62Z" fill="#231f20"/><path d="M8.87,2.77c.2,0,.26,0,.27.22v.57c0,.23,0,.35-.27.33ZM9,4.2a.64.64,0,0,0,.36-.08.41.41,0,0,0,.18-.38V3a.46.46,0,0,0-.19-.43.9.9,0,0,0-.46-.08H8.45V4.2Z" fill="#231f20"/><path d="M10.41,3.55h-.23l.11-.78h0Zm-.33.65.05-.34h.32l.06.34h.42l-.38-1.75h-.5L9.67,4.2Z" fill="#231f20"/><path d="M5.84,6.15c0,.08,0,.19-.11.19s-.11-.11-.11-.19V5.61c0-.08,0-.18.11-.18s.11.1.11.18Zm.31-.56a.37.37,0,0,0-.42-.39.37.37,0,0,0-.42.39v.53c0,.3.11.45.42.45s.42-.15.42-.45Z" fill="#fff"/><path d="M6.6,5.46c.15,0,.22,0,.22.16s0,.17-.11.17H6.6ZM6.6,6h.1c.07,0,.1.06.11.14s0,.19,0,.31,0,0,0,.07h.34a.13.13,0,0,1,0,0c0-.08,0-.31,0-.42A.18.18,0,0,0,7,5.89H7a.28.28,0,0,0,.16-.3c0-.26-.13-.36-.38-.36H6.29V6.54H6.6Z" fill="#fff"/><path d="M7.88,6.54V6.43h0a.25.25,0,0,1-.26.14c-.27,0-.35-.18-.35-.41V5.62c0-.29.13-.42.41-.42s.42.11.42.38v.09h-.3V5.6c0-.11,0-.17-.1-.17s-.12.05-.12.14v.65c0,.07,0,.12.11.12s.11-.09.11-.17v-.1H7.67V5.83h.42v.71Z" fill="#fff"/><path d="M8.74,6.06H8.56l.09-.59h0Zm-.25.48,0-.25h.24l.05.25h.31L8.84,5.23H8.47L8.18,6.54Z" fill="#fff"/><path d="M9.49,5.81h0l0,.73H9.22V5.23h.32L9.78,6h0l0-.73H10V6.54H9.73Z" fill="#fff"/><path d="M10.21,6.54V5.23h.31V6.54Z" fill="#fff"/><path d="M11.2,5.69V5.6c0-.11,0-.17-.1-.17s-.12.05-.12.14v.65c0,.07,0,.12.11.12s.12-.11.12-.19V6h.31v.16c0,.23-.13.38-.45.38a.36.36,0,0,1-.4-.41V5.62a.37.37,0,0,1,.42-.42c.26,0,.42.11.42.38v.11Z" fill="#fff"/></svg>